<svg width="312" height="117" viewBox="0 0 312 117" fill="none" xmlns="http://www.w3.org/2000/svg">
<path d="M271.894 47.1781C271.225 47.1781 270.575 47.317 270 47.6444L251.801 58.2201C250.623 58.9026 249.907 60.1926 249.907 61.5641V82.6776C249.907 84.0486 250.623 85.3364 251.801 86.021L256.554 88.7771C258.863 89.9228 259.715 89.9044 260.766 89.9044C264.184 89.9044 266.136 87.8168 266.136 84.1885V63.3588C266.136 63.0643 265.883 62.8535 265.595 62.8535H263.316C263.023 62.8535 262.775 63.0697 262.775 63.3588V84.1994C262.775 85.8076 261.11 87.4256 258.409 86.0659L253.468 83.1499C253.293 83.0542 253.158 82.8797 253.158 82.6835V61.57C253.158 61.3701 253.292 61.1658 253.468 61.0648L271.629 50.5269C271.799 50.4286 272.002 50.4286 272.17 50.5269L290.331 61.0648C290.504 61.1691 290.64 61.3636 290.64 61.57V82.6835C290.64 82.8851 290.54 83.0915 290.37 83.1888L272.17 93.7266C272.009 93.8201 271.794 93.8201 271.63 93.7266L266.954 90.9274C266.814 90.8452 266.625 90.8517 266.491 90.9274C265.2 91.6634 264.957 91.7488 263.747 92.1714C263.449 92.2757 262.995 92.4383 263.902 92.9495L270.007 96.5702C270.588 96.9085 271.236 97.0755 271.901 97.0755C272.575 97.0755 273.213 96.9134 273.794 96.5702L291.994 86.0324C293.171 85.3428 293.887 84.0599 293.887 82.6889V61.5754C293.887 60.2039 293.171 58.9167 291.994 58.2314L273.794 47.6558C273.224 47.3283 272.57 47.1894 271.901 47.1894L271.894 47.1781ZM276.763 62.265C271.58 62.265 268.494 64.4844 268.494 68.1748C268.494 72.1738 271.557 73.2784 276.531 73.7734C282.482 74.3597 282.946 75.239 282.946 76.4176C282.946 78.4619 281.326 79.3336 277.497 79.3336C272.687 79.3336 271.63 78.1252 271.276 75.7129C271.234 75.4546 271.037 75.2465 270.774 75.2465H268.411C268.269 75.2497 268.133 75.308 268.032 75.4094C267.931 75.5108 267.873 75.6474 267.87 75.7907C267.87 78.8726 269.536 82.5171 277.492 82.5171C283.251 82.5171 286.572 80.2474 286.572 76.2571C286.572 72.3121 283.889 71.2459 278.303 70.5018C272.664 69.7452 272.121 69.3832 272.121 68.0522C272.121 66.9541 272.577 65.4852 276.758 65.4852C280.492 65.4852 281.872 66.2959 282.438 68.8293C282.487 69.067 282.696 69.2616 282.94 69.2616H285.303C285.448 69.2616 285.589 69.1719 285.69 69.067C285.789 68.9552 285.859 68.8293 285.845 68.6779C285.479 64.3147 282.588 62.2623 276.764 62.2623L276.763 62.265Z" fill="#83CD29"/>
<path d="M164.898 19.5003C164.695 19.5007 164.495 19.5543 164.319 19.656C164.143 19.7593 163.997 19.9069 163.896 20.0842C163.794 20.2615 163.74 20.4624 163.739 20.667V50.4118C163.739 50.7036 163.604 50.9652 163.353 51.1116C163.229 51.1839 163.089 51.222 162.947 51.222C162.804 51.222 162.664 51.1839 162.541 51.1116L157.711 48.3124C157.359 48.1072 156.959 47.9992 156.552 47.9992C156.145 47.9992 155.745 48.1072 155.393 48.3124L136.112 59.51C135.391 59.9283 134.952 60.7335 134.952 61.5706V83.9664C134.951 84.3763 135.058 84.779 135.261 85.134C135.465 85.4889 135.758 85.7835 136.111 85.9881L155.393 97.1863C155.745 97.3919 156.145 97.5003 156.552 97.5003C156.959 97.5003 157.359 97.3919 157.711 97.1863L176.992 85.9881C177.345 85.7835 177.638 85.4889 177.842 85.134C178.046 84.779 178.153 84.3763 178.152 83.9664V28.1322C178.152 27.2826 177.691 26.4856 176.954 26.0716L165.478 19.6165C165.298 19.5155 165.098 19.4976 164.898 19.4998V19.5003ZM40.8623 47.4564C40.4944 47.4715 40.1491 47.5358 39.8188 47.7287L20.5379 58.9264C20.1847 59.1306 19.8914 59.4251 19.6879 59.7802C19.4843 60.1352 19.3777 60.5381 19.3789 60.948L19.4181 91.0046C19.4181 91.4229 19.6329 91.8109 19.9981 92.0152C20.3563 92.2313 20.8005 92.2313 21.1571 92.0152L32.5945 85.405C33.3195 84.9727 33.7921 84.2183 33.7921 83.3839V69.347C33.7921 68.5093 34.2298 67.742 34.9521 67.3259L39.821 64.4877C40.1728 64.2818 40.573 64.1743 40.9799 64.1764C41.3871 64.174 41.7875 64.2814 42.1394 64.4877L47.0061 67.3242C47.7274 67.7403 48.1651 68.5088 48.1651 69.3453V83.3817C48.1651 84.2172 48.6484 84.9759 49.3627 85.4028L60.8001 92.013C61.1599 92.2292 61.603 92.2292 61.9591 92.013C62.3135 91.8077 62.5391 91.4202 62.5391 91.0025L62.5777 60.947C62.58 60.5368 62.4739 60.1335 62.2703 59.7783C62.0666 59.423 61.7727 59.1286 61.4188 58.9253L42.1378 47.7282C41.8118 47.5358 41.4649 47.471 41.0943 47.4558H40.8634L40.8623 47.4564ZM214.126 47.7287C213.719 47.7276 213.319 47.835 212.966 48.04L193.685 59.2382C192.965 59.657 192.525 60.4228 192.525 61.2593V83.6552C192.525 84.4971 192.996 85.2602 193.722 85.6763L212.849 96.6464C213.556 97.0517 214.418 97.0825 215.129 96.6842L226.721 90.1908C227.089 89.9854 227.338 89.6017 227.339 89.1802C227.34 88.7587 227.122 88.3794 226.759 88.1697L207.361 76.9715C206.998 76.7629 206.743 76.3408 206.743 75.9215V68.9184C206.743 68.5001 207.001 68.1165 207.361 67.9079L213.389 64.4082C213.747 64.1996 214.188 64.1996 214.549 64.4082L220.579 67.9079C220.756 68.0099 220.902 68.1572 221.004 68.3346C221.106 68.5121 221.159 68.7135 221.159 68.9184V74.4397C221.158 74.6446 221.211 74.846 221.313 75.0235C221.415 75.2009 221.561 75.3482 221.738 75.4502C222.099 75.6599 222.537 75.661 222.898 75.4502L234.451 68.686C235.168 68.2667 235.611 67.4988 235.611 66.6649V61.2609C235.611 60.8512 235.504 60.4487 235.3 60.0938C235.097 59.739 234.804 59.4442 234.451 59.2393L215.286 48.0411C214.934 47.8358 214.534 47.7284 214.126 47.7298L214.126 47.7287ZM156.474 64.4488C156.582 64.4483 156.688 64.4748 156.783 64.526L163.391 68.3753C163.57 68.4796 163.7 68.6725 163.7 68.8806V76.5791C163.7 76.7883 163.571 76.9807 163.391 77.0844L156.783 80.9337C156.604 81.0364 156.384 81.0364 156.203 80.9337L149.596 77.0844C149.416 76.9801 149.287 76.7872 149.287 76.5791V68.8795C149.287 68.6709 149.417 68.4796 149.596 68.3742L156.203 64.5255C156.294 64.4731 156.373 64.4482 156.474 64.4482V64.4477V64.4488Z" fill="#016EC5"/>
<path d="M98.7848 47.6115C98.3776 47.6108 97.9775 47.7181 97.6247 47.9227L78.3432 59.082C77.6225 59.5003 77.1843 60.306 77.1843 61.1426V83.5384C77.1832 83.9482 77.2898 84.351 77.4934 84.706C77.6969 85.0609 77.9901 85.3554 78.3432 85.5595L97.6247 96.7577C97.9769 96.9634 98.3768 97.0717 98.784 97.0717C99.1911 97.0717 99.591 96.9634 99.9432 96.7577L119.225 85.5595C119.578 85.355 119.871 85.0604 120.074 84.7054C120.278 84.3505 120.385 83.9477 120.384 83.5379V61.142C120.384 60.3044 119.946 59.4992 119.224 59.0815L99.9426 47.9222C99.5903 47.7166 99.1899 47.6092 98.7826 47.6109L98.7848 47.6115ZM214.088 67.5971C214.012 67.5971 213.926 67.5971 213.856 67.635L210.147 69.8128C210.078 69.8514 210.02 69.9076 209.979 69.9758C209.939 70.044 209.916 70.1218 209.915 70.2013V74.4786C209.915 74.6397 210.008 74.7866 210.147 74.8677L213.856 77.0061C213.92 77.0458 213.994 77.0668 214.068 77.0668C214.143 77.0668 214.217 77.0458 214.281 77.0061L217.99 74.8677C218.127 74.7883 218.222 74.6397 218.222 74.4786V70.2013C218.222 70.0403 218.128 69.8933 217.99 69.8122L214.281 67.6344C214.212 67.5934 214.165 67.5966 214.087 67.5966L214.088 67.5971Z" fill="#83CD29"/>
</svg>
