<svg width="102" height="117" viewBox="0 0 102 117" fill="none" xmlns="http://www.w3.org/2000/svg">
<path d="M58.1186 38.8269L54.628 46.0844L42.6903 21.2577L6.04328 97.461H30.8557C30.8557 101.47 33.562 104.719 36.9002 104.719H6.04329C3.88402 104.719 1.88897 103.335 0.809513 101.09C-0.269941 98.844 -0.269831 96.078 0.809803 93.833L37.4567 17.629C38.5364 15.3834 40.5319 14 42.6915 14C44.851 14 46.8465 15.3834 47.9263 17.629L58.1186 38.8269Z" fill="#00C58E"/>
<path d="M84.5731 93.833L61.6092 46.0844L58.1186 38.8269L54.6279 46.0844L31.6666 93.833C30.5869 96.078 30.5868 98.844 31.6663 101.09C32.7457 103.335 34.7408 104.719 36.9 104.719H79.332C81.4917 104.719 83.4876 103.336 84.5677 101.091C85.6478 98.845 85.6479 96.078 84.568 93.833H84.5731ZM36.9 97.461L58.1186 53.3419L79.332 97.461H36.9Z" fill="#302B63"/>
<path d="M100.992 101.09C99.9118 103.335 97.917 104.719 95.7579 104.719H79.3321C82.6704 104.719 85.3766 101.47 85.3766 97.461H95.7453L66.324 36.2777L61.6093 46.0844L58.1187 38.8269L61.0905 32.6489C62.1702 30.4033 64.1657 29.02 66.3253 29.02C68.4848 29.02 70.4803 30.4033 71.56 32.6489L100.992 93.833C102.071 96.078 102.071 98.845 100.992 101.09Z" fill="#108775"/>
</svg>
