<svg width="102" height="117" viewBox="0 0 102 117" fill="none" xmlns="http://www.w3.org/2000/svg">
<path d="M0 20C0 8.96 11.424 0 25.5 0H51V40H25.5C11.424 40 0 31.04 0 20Z" fill="#EE463C"/>
<path d="M25.5 117C39.576 117 51 108.04 51 97V77H25.5C11.424 77 0 85.96 0 97C0 108.04 11.424 117 25.5 117Z" fill="#2DDD3F"/>
<path d="M0 58.5C0 48.288 11.424 40 25.5 40H51V77H25.5C11.424 77 0 68.712 0 58.5Z" fill="#302B63"/>
<path d="M51 0H76.5C90.576 0 102 8.96 102 20C102 31.04 90.576 40 76.5 40H51V0Z" fill="#DC7069"/>
<path d="M102 58.5C102 68.712 90.576 77 76.5 77C62.424 77 51 68.712 51 58.5C51 48.288 62.424 40 76.5 40C90.576 40 102 48.288 102 58.5Z" fill="#2CABF3"/>
</svg>
