<svg width="117" height="117" viewBox="0 0 117 117" fill="none" xmlns="http://www.w3.org/2000/svg">
<path d="M114.794 53.2888L63.7077 2.20663C60.7683 -0.735542 55.997 -0.735542 53.0539 2.20663L42.4464 12.8156L55.9017 26.2715C59.0297 25.2153 62.6151 25.9234 65.1073 28.4163C67.6125 30.9246 68.3156 34.5407 67.2329 37.6793L80.2015 50.6484C83.3389 49.5671 86.9589 50.2657 89.4642 52.7755C92.9667 56.2772 92.9667 61.9513 89.4642 65.4539C85.9611 68.9577 80.2872 68.9577 76.7822 65.4539C74.1485 62.8181 73.4971 58.9483 74.8311 55.7033L62.7365 43.6083L62.7354 75.4362C63.5894 75.859 64.3952 76.4232 65.1068 77.1317C68.6084 80.633 68.6084 86.3061 65.1068 89.8132C61.6042 93.3144 55.9278 93.3144 52.4289 89.8132C48.9269 86.3064 48.9269 80.6333 52.4289 77.1317C53.2944 76.2677 54.2958 75.6138 55.3644 75.1755V43.0517C54.2953 42.6152 53.2951 41.9662 52.4283 41.0953C49.7757 38.4446 49.1368 34.5512 50.4972 31.2936L37.2329 18.0267L2.20723 53.0528C-0.735744 55.9972 -0.735744 60.7687 2.20723 63.7111L53.2905 114.793C56.2316 117.736 61.0012 117.736 63.9463 114.793L114.793 63.9524C117.736 61.0088 117.736 56.2359 114.793 53.2931" fill="#016EC5"/>
</svg>
